<?xml version="1.0" encoding="utf-8"?>
<!-- Designed by Vexels.com - 2016 All Rights Reserved - https://vexels.com/terms-and-conditions/  -->

<svg version="1.1" id="Layer_1" xmlns="http://www.w3.org/2000/svg" xmlns:xlink="http://www.w3.org/1999/xlink" x="0px" y="0px"
	 width="1200px" height="1200px" viewBox="0 0 1200 1200" enable-background="new 0 0 1200 1200" xml:space="preserve">
<g>
	<path fill="#575756" d="M1148.363,637.897L992.649,141.269l-793.76,168.287l37.331,123.487L50,482.248
		c0,0,86.921,277.221,144.101,459.931c57.243,182.71,195.662,95.982,195.662,95.982s599.886-252.398,691.018-290.719
		C1166.68,711.353,1148.363,637.897,1148.363,637.897z M257.023,911.612l-118.38-377.8l119.723-27.666l145.693,488.586
		l51.119-31.047C292.762,1050.766,257.023,911.612,257.023,911.612z M1057.936,706.693c0,0-113.979,44.352-246.719,98.821
		l-85.134-271.575l-278.881,87.078l94.194,300.485c-27.826,12.861-52.841,24.826-73.645,35.514L321.862,491.502l0,0l-40.778-130.094
		l692.61-159.383c0,0,107.47,342.956,128.594,410.602C1123.54,680.211,1057.936,706.693,1057.936,706.693z"/>
	<polygon fill="#575756" points="1015.433,459.624 783.838,533.175 801.898,591.025 1032.218,513.423 	"/>
	<polygon fill="#575756" points="813.513,627.784 831.573,685.634 1059.85,601.396 1042.938,547.597 	"/>
	<path fill="#575756" d="M494.106,369.547l14.55,46.522c7.594,24.251,15.125,45.597,23.869,66.179l-0.448,0.19
		c-13.21-16.05-28.907-33.505-44.098-47.829l-53.416-50.45l-45.31,11.106l51.629,164.807l35.292-10.371l-15.445-49.139
		c-8.296-26.708-16.082-49.522-24.124-70.995l1.023-0.255c14.04,17.007,31.779,34.972,47.225,49.584l54.563,52.109l38.164-11.234
		l-49.714-158.586L494.106,369.547z"/>
	<polygon fill="#575756" points="634.506,471.43 622.89,434.543 678.538,419.258 669.798,391.054 613.957,405.891 603.746,373.599 
		663.096,358.441 654.225,330.044 559.393,353.399 608.595,510.646 705.214,482.121 696.346,453.785 	"/>
	<path fill="#575756" d="M781.094,389.936c-1.278-15.922-3.509-30.57-6.189-47.96l0.382-0.065
		c6.956,16.468,13.655,29.678,20.931,43.843l31.524,60.213l33.25-9.829l-10.975-154.309l-30.887,7.594l7.528,62.382
		c2.745,18.314,5.042,36.249,8.107,53.096l-0.382,0.127c-7.211-15.667-14.233-30.76-22.719-47.097l-30.443-59.128l-33.759,8.263
		l6.956,63.915c2.297,19.624,4.532,38.451,7.404,55.426l-0.448,0.062c-7.149-14.485-16.145-32.992-24.954-50.159l-30.378-59.063
		l-35.481,8.773l82.069,142.121l35.226-10.371L781.094,389.936z"/>
	<path fill="#575756" d="M922.513,353.017c17.167,1.693,24.826,5.042,27.571,13.815c2.807,9.253-2.17,17.327-15.445,21.095
		c-12.315,3.571-26.035,2.614-35.226,0.317l2.362,28.401c8.806,2.297,24.823,2.487,39.438-1.853
		c34.651-10.273,44.225-34.877,36.886-58.265c-6.189-19.784-20.422-29.963-45.565-33.122c-18.889-2.552-27.251-4.656-30.057-13.72
		c-2.3-7.146,1.784-15.285,14.423-18.54c12.315-3.094,22.781-1.467,28.463,0l-1.598-27.058c-8.744-2.075-19.974-2.617-34.651,0.99
		c-30.378,7.401-43.46,30.694-35.802,55.138C879.82,341.114,898.392,350.432,922.513,353.017z"/>
</g>
</svg>
