<?xml version="1.0" encoding="utf-8"?>
<!-- Designed by Vexels.com - 2016 All Rights Reserved - https://vexels.com/terms-and-conditions/  -->

<svg version="1.1" id="Layer_1" xmlns="http://www.w3.org/2000/svg" xmlns:xlink="http://www.w3.org/1999/xlink" x="0px" y="0px"
	 width="1200px" height="1200px" viewBox="0 0 1200 1200" enable-background="new 0 0 1200 1200" xml:space="preserve">
<g>
	<path fill="#E84624" d="M1018.631,533.778C1018.631,266.59,802.041,50,534.861,50S51.09,266.59,51.09,533.778
		c0,267.173,216.59,483.762,483.77,483.762S1018.631,800.951,1018.631,533.778z"/>
	<g>
		<defs>
			<path id="SVGID_1_" d="M1018.631,533.778C1018.631,266.59,802.041,50,534.861,50S51.09,266.59,51.09,533.778
				c0,267.173,216.59,483.762,483.77,483.762S1018.631,800.951,1018.631,533.778z"/>
		</defs>
		<clipPath id="SVGID_2_">
			<use xlink:href="#SVGID_1_"  overflow="visible"/>
		</clipPath>
		<g clip-path="url(#SVGID_2_)">
			<linearGradient id="SVGID_3_" gradientUnits="userSpaceOnUse" x1="1288.2397" y1="1227.917" x2="682.0386" y2="621.7094">
				<stop  offset="0" style="stop-color:#FFFFFF"/>
				<stop  offset="0.0356" style="stop-color:#F3F2F0"/>
				<stop  offset="0.1851" style="stop-color:#C5C1B6"/>
				<stop  offset="0.3345" style="stop-color:#9D9783"/>
				<stop  offset="0.4804" style="stop-color:#7D745A"/>
				<stop  offset="0.622" style="stop-color:#64593A"/>
				<stop  offset="0.7583" style="stop-color:#524623"/>
				<stop  offset="0.887" style="stop-color:#473A16"/>
				<stop  offset="1" style="stop-color:#433611"/>
			</linearGradient>
			<polygon opacity="0.5" fill="url(#SVGID_3_)" points="357.105,727.607 798.05,1150 1138.442,1102.873 1148.91,657.751 
				718.992,296.028 358.254,394.934 369.033,448.872 292.382,489.927 318.263,586.481 342.499,640.038 			"/>
			<g>
				<path fill="#FFFFFF" d="M791.714,532.007l-75.425-240.662L331.635,372.92l18.085,59.792l-90.248,23.855
					c0,0,42.119,134.331,69.833,222.887c27.738,88.508,94.776,46.498,94.776,46.498s290.74-122.311,334.878-140.886
					C800.565,567.58,791.714,532.007,791.714,532.007z M359.823,664.647L302.43,481.541l58.007-13.372l70.617,236.733l24.795-15.057
					C377.109,732.065,359.823,664.647,359.823,664.647z M747.917,565.328c0,0-55.25,21.479-119.571,47.873L587.09,481.603
					l-135.132,42.22l45.621,145.592c-13.48,6.212-25.594,12.067-35.658,17.238l-70.719-225.581l0,0l-19.739-63.031l335.577-77.257
					c0,0,52.106,166.201,62.371,198.97C779.685,552.523,747.917,565.328,747.917,565.328z"/>
				<polygon fill="#FFFFFF" points="727.277,445.626 615.091,481.261 623.851,509.278 735.438,471.663 				"/>
				<polygon fill="#FFFFFF" points="629.458,527.123 638.232,555.124 748.795,514.295 740.633,488.234 				"/>
				<path fill="#FFFFFF" d="M474.664,401.947l7.059,22.542c3.704,11.749,7.346,22.116,11.601,32.079l-0.249,0.085
					c-6.383-7.758-13.993-16.221-21.339-23.156l-25.889-24.468l-21.992,5.42l25.036,79.859l17.083-5.048l-7.447-23.816
					c-4.054-12.929-7.797-23.971-11.679-34.385l0.466-0.124c6.795,8.223,15.422,16.935,22.869,24.018l26.472,25.26l18.474-5.482
					l-24.081-76.83L474.664,401.947z"/>
				<polygon fill="#FFFFFF" points="542.68,451.349 537.074,433.474 564.081,426.027 559.803,412.383 532.741,419.581 
					527.787,403.911 556.588,396.573 552.255,382.821 506.308,394.134 530.163,470.335 576.988,456.506 572.693,442.761 				"/>
				<path fill="#FFFFFF" d="M613.748,411.847c-0.637-7.711-1.677-14.824-3.013-23.234l0.21-0.023
					c3.37,7.959,6.562,14.365,10.126,21.238l15.297,29.166l16.097-4.768l-5.296-74.764l-15.018,3.704l3.688,30.192
					c1.305,8.876,2.431,17.572,3.906,25.757l-0.186,0.062c-3.456-7.633-6.872-14.917-11.004-22.853l-14.746-28.638l-16.346,4.007
					l3.37,30.976c1.11,9.489,2.213,18.652,3.564,26.837l-0.209,0.039c-3.433-6.997-7.813-15.997-12.106-24.321l-14.692-28.577
					l-17.199,4.217l39.765,68.87l17.084-5.032L613.748,411.847z"/>
				<path fill="#FFFFFF" d="M682.269,393.971c8.309,0.8,12.013,2.415,13.34,6.71c1.414,4.457-1.04,8.348-7.447,10.212
					c-5.995,1.692-12.618,1.242-17.06,0.116l1.149,13.791c4.233,1.102,11.982,1.188,19.103-0.924
					c16.772-4.97,21.44-16.89,17.86-28.251c-2.99-9.551-9.886-14.458-22.077-16.011c-9.163-1.227-13.208-2.276-14.583-6.648
					c-1.079-3.479,0.901-7.432,6.997-9c5.956-1.499,11.027-0.722,13.806,0l-0.776-13.092c-4.233-1.002-9.715-1.289-16.796,0.466
					c-14.723,3.58-21.091,14.855-17.387,26.72C661.59,388.186,670.575,392.705,682.269,393.971z"/>
			</g>
		</g>
	</g>
</g>
</svg>
